<svg width="104" height="53" viewBox="0 0 104 53" fill="none" xmlns="http://www.w3.org/2000/svg">
<path d="M1.1792 18.4743V17.0682H7.80518C8.43419 17.0682 8.74868 16.7581 8.74868 16.138V14.4939C8.74868 13.9458 8.50566 13.6213 8.01961 13.5204L3.66662 12.6335C2.00834 12.3017 1.1792 11.1768 1.1792 9.25879V8.06899C1.1792 5.71824 2.34429 4.54287 4.67446 4.54287H9.67075L10.9359 5.53797V6.94409H4.73879C4.10978 6.94409 3.79528 7.25416 3.79528 7.8743V9.32368C3.79528 9.87171 4.03831 10.1962 4.52435 10.2972L8.87734 11.1625C10.5356 11.5086 11.3648 12.6335 11.3648 14.5372V15.9433C11.3648 18.294 10.1997 19.4694 7.86951 19.4694H2.44435L1.1792 18.4743ZM13.98 16.0514V11.5302C13.98 9.25157 15.1094 8.11225 17.368 8.11225H20.1557C22.4001 8.11225 23.5223 9.25157 23.5223 11.5302V14.7318H16.4889V16.2678C16.4889 16.9311 16.8177 17.2629 17.4753 17.2629H23.0934V18.6257L21.9569 19.4694H17.368C15.1094 19.4694 13.98 18.3301 13.98 16.0514ZM16.4889 12.7633H21.0134V11.3139C21.0134 10.6505 20.6847 10.3188 20.027 10.3188H17.4753C16.8177 10.3188 16.4889 10.6505 16.4889 11.3139V12.7633ZM26.4837 19.4694V9.51838C26.9983 8.58096 27.9847 8.11225 29.4429 8.11225H31.6944L32.8309 8.95593V10.3188H30.0218C29.5357 10.3188 29.1926 10.4414 28.9926 10.6865V19.4694H26.4837ZM33.7867 8.50164L34.0441 8.11225H36.2098L39.0403 17.2629H39.362L42.1925 8.11225H44.3583L44.6156 8.50164L41.0989 19.4694H37.3249L33.7867 8.50164ZM46.5663 6.14368V3.5694H49.2038V6.14368H46.5663ZM46.6306 19.4694V8.11225H49.1395V19.4694H46.6306ZM52.1759 16.0514V11.5302C52.1759 9.25157 53.3053 8.11225 55.5639 8.11225H59.6167L60.7532 8.95593V10.3188H55.6711C55.0136 10.3188 54.6847 10.6505 54.6847 11.3139V16.2678C54.6847 16.9311 55.0136 17.2629 55.6711 17.2629H60.7532V18.6257L59.6167 19.4694H55.5639C53.3053 19.4694 52.1759 18.3301 52.1759 16.0514ZM63.1697 16.0514V11.5302C63.1697 9.25157 64.2992 8.11225 66.5578 8.11225H69.3454C71.5899 8.11225 72.712 9.25157 72.712 11.5302V14.7318H65.6786V16.2678C65.6786 16.9311 66.0074 17.2629 66.665 17.2629H72.2831V18.6257L71.1467 19.4694H66.5578C64.2992 19.4694 63.1697 18.3301 63.1697 16.0514ZM65.6786 12.7633H70.2031V11.3139C70.2031 10.6505 69.8744 10.3188 69.2168 10.3188H66.665C66.0074 10.3188 65.6786 10.6505 65.6786 11.3139V12.7633Z" fill="#E1E1E1"/>
<path d="M32.6152 42.0106V30.502H35.1241V34.0714H38.9625V36.278H35.1241V42.2269C35.1241 42.8903 35.4529 43.222 36.1105 43.222H39.1769V44.5849L38.0404 45.4286H36.0033C33.7445 45.4286 32.6152 44.2893 32.6152 42.0106ZM41.4731 45.4286V35.4776C41.9878 34.5401 42.9742 34.0714 44.4323 34.0714H46.6839L47.8204 34.9151V36.278H45.0113C44.5253 36.278 44.1822 36.4005 43.982 36.6457V45.4286H41.4731ZM52.5554 45.4286C50.2966 45.4286 49.1673 44.3037 49.1673 42.0539C49.1673 39.8041 50.2966 38.6792 52.5554 38.6792H55.8576V37.2731C55.8576 36.6097 55.5288 36.278 54.8712 36.278H50.3253V34.9151L51.4403 34.0714H54.9999C57.2443 34.0714 58.3665 35.2107 58.3665 37.4894V45.4286H52.5554ZM51.6762 42.2269C51.6762 42.8903 52.0049 43.222 52.6626 43.222H55.8576V40.6478H52.6626C52.0049 40.6478 51.6762 40.9722 51.6762 41.6212V42.2269ZM61.323 42.0106V37.4894C61.323 35.2107 62.4523 34.0714 64.711 34.0714H68.7638L69.9003 34.9151V36.278H64.8182C64.1606 36.278 63.8319 36.6097 63.8319 37.2731V42.2269C63.8319 42.8903 64.1606 43.222 64.8182 43.222H69.9003V44.5849L68.7638 45.4286H64.711C62.4523 45.4286 61.323 44.2893 61.323 42.0106ZM72.4884 45.4286V29.4204H74.9973V38.8955L79.3717 34.0714H81.8377L82.0521 34.5041L78.1066 38.809L82.3523 44.9959L82.1379 45.4286H79.6719L76.4554 40.6261L74.9973 42.2053V45.4286H72.4884ZM84.3368 42.0106V37.4894C84.3368 35.2107 85.4661 34.0714 87.7248 34.0714H90.5125C92.7568 34.0714 93.8791 35.2107 93.8791 37.4894V40.691H86.8457V42.2269C86.8457 42.8903 87.1745 43.222 87.8321 43.222H93.4502V44.5849L92.3137 45.4286H87.7248C85.4661 45.4286 84.3368 44.2893 84.3368 42.0106ZM86.8457 38.7225H91.3702V37.2731C91.3702 36.6097 91.0414 36.278 90.3838 36.278H87.8321C87.1745 36.278 86.8457 36.6097 86.8457 37.2731V38.7225ZM96.8404 45.4286V35.4776C97.355 34.5401 98.3414 34.0714 99.7996 34.0714H102.051L103.188 34.9151V36.278H100.379C99.8925 36.278 99.5494 36.4005 99.3492 36.6457V45.4286H96.8404Z" fill="#E1E1E1"/>
<mask id="mask0_240_683" style="mask-type:alpha" maskUnits="userSpaceOnUse" x="0" y="26" width="18" height="18">
<path d="M-0.000219345 43.6109H17.3359L17.3359 26.1217L-0.000219345 26.1217L-0.000219345 43.6109Z" fill="#D9D9D9"/>
</mask>
<g mask="url(#mask0_240_683)">
<path d="M15.0721 30.9003C15.1545 30.9834 15.1958 31.0722 15.1958 31.1665C15.1958 31.2609 15.1545 31.3496 15.0721 31.4329L11.2395 35.2992C11.0182 35.5224 10.7446 35.6341 10.4185 35.6341C10.0926 35.6341 9.81898 35.5224 9.59758 35.2992L7.86252 33.5489C7.76994 33.4554 7.65882 33.4111 7.52916 33.4156C7.3995 33.4204 7.29301 33.4741 7.2097 33.5769L2.7256 38.7718C2.65806 38.8549 2.57679 38.8966 2.48181 38.8966C2.38694 38.8966 2.29966 38.861 2.21996 38.7899C2.15242 38.7218 2.11564 38.6427 2.10963 38.5526C2.1036 38.4623 2.13436 38.3771 2.2019 38.2968L6.68457 33.0751C6.90596 32.8155 7.18424 32.6789 7.51941 32.6653C7.85469 32.6518 8.14507 32.7688 8.39055 33.0163L10.0991 34.7401C10.1824 34.8241 10.2889 34.8662 10.4185 34.8662C10.5482 34.8662 10.6547 34.8241 10.7381 34.7401L14.5442 30.9003C14.6173 30.8265 14.7031 30.7873 14.8013 30.7826C14.8994 30.7779 14.9897 30.8171 15.0721 30.9003Z" fill="#00F361"/>
</g>
<path d="M11.1464 42.0138C9.97818 42.0138 8.89515 41.7833 7.89733 41.3221C6.8997 40.8612 6.03636 40.2299 5.30732 39.4284C5.19026 39.3147 5.13041 39.1778 5.12775 39.018C5.1251 38.8582 5.18426 38.7213 5.3052 38.6073C5.42632 38.5072 5.56239 38.4685 5.71339 38.4911C5.86439 38.5138 6.00038 38.5821 6.12133 38.6959C6.75523 39.393 7.50231 39.9419 8.36255 40.3425C9.22297 40.7432 10.1509 40.9435 11.1464 40.9435C13.0508 40.9435 14.6763 40.2642 16.0228 38.9059C17.3692 37.5473 18.0426 35.9075 18.0426 33.9865C18.0426 32.0654 17.3692 30.4257 16.0228 29.0671C14.6763 27.7087 13.0508 27.0295 11.1464 27.0295C9.44771 27.0295 7.96214 27.5784 6.68973 28.6762C5.41713 29.7739 4.64282 31.1399 4.36679 32.7741C4.31923 32.9539 4.2485 33.1117 4.15461 33.2475C4.06072 33.3834 3.92466 33.4513 3.74642 33.4513C3.58197 33.4513 3.45448 33.3722 3.36394 33.2137C3.27359 33.0551 3.25017 32.886 3.29366 32.7061C3.59143 30.7714 4.47448 29.1632 5.94282 27.8817C7.41115 26.6001 9.1457 25.9592 11.1464 25.9592C13.3663 25.9592 15.2474 26.7372 16.7899 28.2933C18.3323 29.8493 19.1035 31.747 19.1035 33.9865C19.1035 35.0404 18.9342 35.9882 18.5956 36.83C18.2569 37.6718 17.7707 38.4859 17.1368 39.2722L22.3189 44.5001C22.4319 44.6141 22.485 44.7403 22.478 44.879C22.4714 45.0176 22.4183 45.1438 22.3189 45.2576C22.2061 45.3716 22.0777 45.4286 21.9336 45.4286C21.7892 45.4286 21.6607 45.3716 21.5479 45.2576L16.3655 40.0297C15.5862 40.6691 14.7828 41.1596 13.955 41.5014C13.1273 41.843 12.1911 42.0138 11.1464 42.0138Z" fill="white"/>
</svg>
